<svg xmlns="http://www.w3.org/2000/svg" width="176" height="40" viewBox="0 0 176 40" fill="none">
  <g clip-path="url(#clip0_430_150)">
    <path fill-rule="evenodd" clip-rule="evenodd" d="M20.3871 5.55269L16.87 8.55526C16.4132 7.52168 15.6718 6.64124 14.7332 6.01804C13.7947 5.39485 12.6984 5.05496 11.5738 5.03855C7.68863 5.03855 5.4393 6.51927 5.4393 10.8997V17.0694C5.4393 18.7146 6.11409 23.054 10.5105 23.054C11.7701 23.0499 13.0081 22.7253 14.1094 22.1104C15.2106 21.4955 16.1392 20.6103 16.8086 19.5373L20.5507 22.3959C19.4978 24.082 18.0295 25.4659 16.2884 26.4135C14.5472 27.3612 12.5922 27.8403 10.6128 27.8046C9.23856 27.8897 7.86169 27.6885 6.56841 27.2135C5.27514 26.7385 4.09333 26.0001 3.09701 25.0444C2.1007 24.0887 1.31136 22.9364 0.77844 21.6596C0.24552 20.3829 -0.0194921 19.0092 3.1183e-06 17.6247C3.1183e-06 13.1825 0.143142 14.0051 0.143142 9.6658C0.236297 7.27128 1.21428 4.99783 2.88583 3.29009C4.55737 1.58235 6.80223 0.563165 9.18137 0.431866C11.3436 0.0704783 13.5639 0.364475 15.5595 1.27641C17.555 2.18835 19.2356 3.67696 20.3871 5.55269Z" fill="#5E2E27"/>
    <path fill-rule="evenodd" clip-rule="evenodd" d="M48.8514 0.904907H54.1476C54.1476 0.904907 54.1476 12.9975 54.1476 16C54.1476 19.0026 55.3131 23.1363 59.3824 23.1363C63.4516 23.1363 65.0671 21.2648 65.0671 16.144V1.06943H70.3837V27.6607H65.7419V25.2545C63.5163 26.9891 60.7869 27.9426 57.9714 27.9692C55.5017 27.8833 53.1636 26.8276 51.4587 25.0284C49.7539 23.2291 48.8178 20.8297 48.8514 18.3445C48.8514 12.7712 48.7901 0.904907 48.8514 0.904907Z" fill="#5E2E27"/>
    <path fill-rule="evenodd" clip-rule="evenodd" d="M148.088 27.9691H142.751C142.751 27.9691 142.751 15.8766 142.751 12.874C142.751 9.87143 141.585 5.73776 137.516 5.73776C133.447 5.73776 131.831 8.55524 131.831 13.3881V27.784H126.617V1.21334H131.177V3.61951C131.177 3.61951 132.629 0.71977 138.375 0.90486C139.653 0.850793 140.928 1.06164 142.121 1.5243C143.314 1.98697 144.4 2.69155 145.311 3.59425C146.222 4.49695 146.939 5.57846 147.416 6.77156C147.894 7.96465 148.123 9.24382 148.088 10.5295C148.088 16.0822 148.088 27.9691 148.088 27.9691Z" fill="#C7CD1D"/>
    <path fill-rule="evenodd" clip-rule="evenodd" d="M32.1859 0.390747H34.926C37.3594 0.407057 39.6872 1.3921 41.4003 3.13033C43.1133 4.86857 44.0719 7.21846 44.0665 9.66581V18.4267C44.0665 20.8741 43.1026 23.2218 41.3858 24.9562C39.669 26.6905 37.3389 27.6704 34.9056 27.6812H32.1859C29.7542 27.665 27.4273 26.6834 25.7116 24.9502C23.9959 23.217 23.0303 20.8724 23.025 18.4267V9.66581C23.0303 7.22012 23.9959 4.87555 25.7116 3.14233C27.4273 1.40912 29.7542 0.427572 32.1859 0.411309V0.390747ZM32.554 5.03856C31.197 5.19414 29.9542 5.87692 29.0908 6.94122C28.2274 8.00551 27.8118 9.36702 27.9326 10.7352V17.3162C27.8118 18.6844 28.2274 20.0459 29.0908 21.1102C29.9542 22.1745 31.197 22.8573 32.554 23.0128H34.5988C35.9558 22.8573 37.1986 22.1745 38.062 21.1102C38.9254 20.0459 39.341 18.6844 39.2202 17.3162V10.7352C39.341 9.36702 38.9254 8.00551 38.062 6.94122C37.1986 5.87692 35.9558 5.19414 34.5988 5.03856H32.554Z" fill="#5E2E27"/>
    <path fill-rule="evenodd" clip-rule="evenodd" d="M75.4549 1.06936V38.3341H81.2009V25.9948C81.2009 25.9948 82.3869 27.8663 87.6217 27.8663C90.0778 27.8491 92.4351 26.8908 94.2131 25.1866C95.9912 23.4824 97.0564 21.1605 97.1916 18.694V9.66576C97.1916 7.03337 94.9627 0.945967 89.0122 0.658049C83.0617 0.370131 81.344 1.95368 80.6079 3.4961V0.987097H75.5162L75.4549 1.06936ZM85.3724 5.05908H87.9898C89.3468 5.21466 90.5895 5.89745 91.4529 6.96174C92.3163 8.02603 92.732 9.38754 92.6111 10.7557V17.3367C92.732 18.7049 92.3163 20.0664 91.4529 21.1307C90.5895 22.195 89.3468 22.8778 87.9898 23.0334H85.3724C84.0154 22.8778 82.7726 22.195 81.9092 21.1307C81.0458 20.0664 80.6302 18.7049 80.751 17.3367V10.7557C80.6246 9.38418 81.0376 8.0174 81.9016 6.94858C82.7655 5.87977 84.0115 5.19405 85.3724 5.03851V5.05908Z" fill="#E52330"/>
    <path fill-rule="evenodd" clip-rule="evenodd" d="M102.426 2.85864L104.594 6.45761C106.528 5.22938 108.83 4.72687 111.097 5.03859C111.82 5.02693 112.538 5.1718 113.201 5.46336C113.864 5.75493 114.457 6.18639 114.94 6.72853C115.423 7.27068 115.784 7.91084 115.999 8.60567C116.215 9.3005 116.279 10.0338 116.188 10.7558C114.347 9.62994 112.204 9.10547 110.054 9.25453C108.133 9.19625 106.243 9.744 104.648 10.821C103.052 11.8979 101.832 13.4501 101.159 15.2597C100.341 18.5707 100.402 26.3034 106.986 27.599C113.571 28.8946 116.618 25.2751 116.618 25.2751V27.7635H121.096V8.8021C121.096 -0.65806 108.029 -2.26218 102.345 2.87921L102.426 2.85864ZM110.422 13.5527H111.097C112.284 13.5527 113.423 14.0272 114.263 14.8719C115.103 15.7165 115.575 16.8621 115.575 18.0566V18.9615C115.575 20.156 115.103 21.3015 114.263 22.1462C113.423 22.9908 112.284 23.4653 111.097 23.4653H110.422C109.236 23.4599 108.1 22.9837 107.261 22.1402C106.422 21.2967 105.949 20.1543 105.944 18.9615V18.0566C105.944 16.8621 106.415 15.7165 107.255 14.8719C108.095 14.0272 109.234 13.5527 110.422 13.5527Z" fill="#FBBC43"/>
    <path fill-rule="evenodd" clip-rule="evenodd" d="M169.17 2.77639C169.975 1.8158 171.063 1.13831 172.276 0.842422C173.49 0.546535 174.766 0.647674 175.918 1.13114V5.12086C175.181 4.87299 174.393 4.82037 173.631 4.96807C172.868 5.11577 172.155 5.4588 171.563 5.96405C172.174 7.24866 172.495 8.65318 172.503 10.0772C172.564 12.4778 171.678 14.805 170.038 16.5505C168.398 18.296 166.138 19.3181 163.751 19.3934C160.684 19.3934 159.662 19.599 156.922 23.5065C156.492 24.3291 157.249 24 157.249 24C160.754 22.858 164.488 22.6246 168.107 23.3214C170.058 23.677 171.834 24.681 173.15 26.1726C174.466 27.6642 175.247 29.5569 175.366 31.5476C175.489 35.9281 168.823 39.9383 168.823 39.9383L166.532 36.0926C168.72 33.8715 171.644 32.3908 168.863 29.3265C166.083 26.2622 159.232 27.9281 156.022 28.6479C152.811 29.3677 152.096 25.8509 152.382 23.198C152.644 22.0974 153.123 21.0609 153.791 20.1496C154.458 19.2383 155.3 18.4707 156.267 17.8921C154.999 17.0183 153.963 15.8454 153.25 14.4758C152.537 13.1063 152.169 11.5819 152.178 10.036C152.117 7.6354 153.003 5.30819 154.643 3.56266C156.283 1.81713 158.543 0.795123 160.929 0.719834H163.772C165.722 0.730167 167.608 1.42066 169.109 2.67356L169.17 2.77639ZM162.034 5.07973C160.72 5.01801 159.436 5.48028 158.459 6.36604C157.483 7.2518 156.893 8.48942 156.819 9.8098V10.7558C156.893 12.0762 157.483 13.3138 158.459 14.1996C159.436 15.0853 160.72 15.5476 162.034 15.4859H162.831C164.145 15.5476 165.429 15.0853 166.406 14.1996C167.382 13.3138 167.972 12.0762 168.046 10.7558V9.8098C167.972 8.48942 167.382 7.2518 166.406 6.36604C165.429 5.48028 164.145 5.01801 162.831 5.07973H162.034Z" fill="#61BFE6"/>
  </g>
  <defs>
    <clipPath id="clip0_430_150">
      <rect width="176" height="40" fill="white"/>
    </clipPath>
  </defs>
</svg>