<svg width="90" height="137" viewBox="0 0 90 137" fill="none" xmlns="http://www.w3.org/2000/svg">
<g id="Union">
<mask id="path-1-inside-1_210_6579" fill="white">
<path fill-rule="evenodd" clip-rule="evenodd" d="M49.0415 7L45 0L40.9585 7H0V137H90V7H49.0415Z"/>
</mask>
<path fill-rule="evenodd" clip-rule="evenodd" d="M49.0415 7L45 0L40.9585 7H0V137H90V7H49.0415Z" fill="white"/>
<path d="M45 0L45.866 -0.5L45 -2L44.134 -0.5L45 0ZM49.0415 7L48.1754 7.5L48.4641 8H49.0415V7ZM40.9585 7V8H41.5359L41.8246 7.5L40.9585 7ZM0 7V6H-1V7H0ZM0 137H-1V138H0V137ZM90 137V138H91V137H90ZM90 7H91V6H90V7ZM44.134 0.5L48.1754 7.5L49.9075 6.5L45.866 -0.5L44.134 0.5ZM41.8246 7.5L45.866 0.5L44.134 -0.5L40.0925 6.5L41.8246 7.5ZM0 8H40.9585V6H0V8ZM1 137V7H-1V137H1ZM90 136H0V138H90V136ZM89 7V137H91V7H89ZM49.0415 8H90V6H49.0415V8Z" fill="#DCDCDC" mask="url(#path-1-inside-1_210_6579)"/>
</g>
</svg>
